<svg xmlns="http://www.w3.org/2000/svg" width="256" height="256" viewBox="0 0 100 100"><rect width="100" height="100" rx="20" fill="#999999"></rect><path fill="#ffffff" d="M69.08 36.59L69.08 36.59Q69.08 40.55 67.10 43.66Q65.12 46.76 60.80 48.56L60.80 48.56Q66.02 50.27 68.58 53.78Q71.15 57.29 71.15 61.97L71.15 61.97Q71.15 70.43 65.08 74.44Q59 78.44 47.66 78.44L47.66 78.44Q44.15 78.44 40.23 78.08Q36.32 77.72 32.99 76.73L32.99 76.73Q28.85 75.56 28.85 71.96L28.85 71.96L28.85 26.96Q28.85 25.43 29.71 24.58Q30.56 23.72 32.09 23.27L32.09 23.27Q35.15 22.28 38.89 21.92Q42.62 21.56 46.94 21.56L46.94 21.56Q57.47 21.56 63.28 25.25Q69.08 28.94 69.08 36.59ZM61.34 61.70L61.34 61.70Q61.34 57.56 58.28 55.17Q55.22 52.79 49.46 52.79L49.46 52.79L38.30 52.79L38.30 69.89Q40.19 70.34 42.80 70.56Q45.41 70.79 48.02 70.79L48.02 70.79Q54.41 70.79 57.88 68.58Q61.34 66.38 61.34 61.70ZM38.30 29.84L38.30 45.50L49.01 45.50Q54.14 45.50 56.75 43.25Q59.36 41 59.36 37.13L59.36 37.13Q59.36 29.21 46.94 29.21L46.94 29.21Q44.33 29.21 42.17 29.39Q40.01 29.57 38.30 29.84L38.30 29.84Z"></path></svg>